<?xml version="1.0" standalone="no"?>
<!DOCTYPE svg PUBLIC "-//W3C//DTD SVG 20010904//EN"
 "http://www.w3.org/TR/2001/REC-SVG-20010904/DTD/svg10.dtd">
<svg version="1.0" xmlns="http://www.w3.org/2000/svg"
 width="274.000000pt" height="498.000000pt" viewBox="0 0 274.000000 498.000000"
 preserveAspectRatio="xMidYMid meet">

<g transform="translate(0.000000,498.000000) scale(0.100000,-0.100000)"
fill="#000000" stroke="none">
<path d="M0 4240 l0 -740 250 0 250 0 0 490 0 490 450 0 450 0 0 250 0 250
-700 0 -700 0 0 -740z"/>
<path d="M1500 4100 l0 -880 250 0 250 0 0 223 0 222 120 120 120 120 0 -1143
0 -1142 250 0 250 0 0 1600 0 1600 -250 0 -250 0 0 -203 0 -202 -120 -120
-120 -120 0 403 0 402 -250 0 -250 0 0 -880z"/>
<path d="M0 1690 l0 -1690 250 0 250 0 0 320 0 320 120 0 120 0 0 -320 0 -320
250 0 250 0 0 880 0 880 -250 0 -250 0 0 -320 0 -320 -120 0 -120 0 0 1130 0
1130 -250 0 -250 0 0 -1690z"/>
<path d="M1285 3154 c-157 -25 -319 -118 -413 -238 -68 -85 -87 -119 -118
-211 -24 -69 -28 -96 -28 -200 0 -133 13 -194 66 -299 44 -87 102 -160 172
-214 85 -68 119 -87 211 -118 69 -24 96 -28 200 -28 133 0 194 13 299 66 87
44 160 102 214 172 68 85 87 119 118 211 24 69 28 96 28 200 0 133 -13 194
-66 299 -59 116 -149 212 -268 283 -70 43 -186 74 -288 78 -53 2 -110 1 -127
-1z m195 -415 c210 -95 212 -377 5 -475 -166 -79 -364 50 -365 236 0 140 120
260 260 260 34 0 72 -8 100 -21z"/>
<path d="M2240 990 l0 -490 -450 0 -450 0 0 -250 0 -250 700 0 700 0 0 740 0
740 -250 0 -250 0 0 -490z"/>
</g>
</svg>
